<svg xmlns="http://www.w3.org/2000/svg" viewBox="-60 -200 2500 1540" width="2500" height="1540" font-family="'HY헤드라인M','HYHeadLine-Medium','HY헤드라인','Malgun Gothic','맑은 고딕',sans-serif">
<rect x="-60" y="-200" width="2500" height="1540" fill="#ffffff"/>
<rect x="-20" y="38" width="900" height="722" fill="none" stroke="#74c0fc" stroke-width="4" rx="14"/>
<text x="-8" y="59" font-size="15" fill="#1971c2" text-anchor="start">화면 (버튼 · 팝업 · 상품 목록 · 알림)</text>
<rect x="-20" y="770" width="420" height="458" fill="none" stroke="#63e6be" stroke-width="4" rx="14"/>
<text x="-8" y="791" font-size="15" fill="#0f766e" text-anchor="start">가구별 설정 · 검색 조건</text>
<rect x="460" y="770" width="420" height="176" fill="none" stroke="#fcc419" stroke-width="4" rx="14"/>
<text x="472" y="791" font-size="15" fill="#b45309" text-anchor="start">마우스 감지</text>
<rect x="460" y="954" width="900" height="262" fill="none" stroke="#69db7c" stroke-width="4" rx="14"/>
<text x="472" y="975" font-size="15" fill="#15803d" text-anchor="start">3D 공간 (가구 · 카메라)</text>
<rect x="940" y="38" width="420" height="392" fill="none" stroke="#b197fc" stroke-width="4" rx="14"/>
<text x="952" y="59" font-size="15" fill="#6d28d9" text-anchor="start">전체 연결 담당</text>
<rect x="940" y="438" width="420" height="198" fill="none" stroke="#ffa94d" stroke-width="4" rx="14"/>
<text x="952" y="459" font-size="15" fill="#c2410c" text-anchor="start">상품 검색 · 필터 · 정렬</text>
<polygon points="940,658 1370,658 1370,38 2380,38 2380,1100 1370,1100 1370,872 940,872" fill="none" stroke="#63e6be" stroke-width="4" stroke-linejoin="round"/>
<text x="952" y="679" font-size="15" fill="#0f766e" text-anchor="start">상품 가져오는 방법 (규칙)</text>
<text x="1382" y="59" font-size="15" fill="#0f766e" text-anchor="start">상품 정보 가져오기 (네이버 API · 캐시 · 예비 파일)</text>
<rect x="1370" y="1120" width="1010" height="180" fill="none" stroke="#ff8787" stroke-width="4" rx="14"/>
<text x="1382" y="1141" font-size="15" fill="#b91c1c" text-anchor="start">예외 처리</text>
<text x="960" y="-30" font-size="28" fill="#1e1e1e" text-anchor="start">RoomPick 클래스 다이어그램</text>
<rect x="1500" y="-172" width="640" height="172" fill="#fff3bf" stroke="#f59e0b" stroke-width="1.2" rx="0"/>
<text x="1512" y="-148" font-size="15" fill="#1e1e1e" text-anchor="start">상품을 가져오는 순서 (RoomPickManager가 시작할 때 연결)</text>
<text x="1512" y="-122" font-size="14" fill="#1e1e1e" text-anchor="start">1. Naver: 네이버 API로 검색한다</text>
<text x="1512" y="-102" font-size="14" fill="#1e1e1e" text-anchor="start">2. Cached: 같은 검색어는 저장해 둔 결과를 다시 쓴다</text>
<text x="1512" y="-82" font-size="14" fill="#1e1e1e" text-anchor="start">3. Fallback: 1~2가 실패하면 Json(예비 파일)에서 읽는다</text>
<text x="1512" y="-62" font-size="14" fill="#1e1e1e" text-anchor="start">※ 예비 파일에서 읽은 결과는 저장해 두지 않는다</text>
<text x="1512" y="-42" font-size="14" fill="#1e1e1e" text-anchor="start">※ 네이버에는 색상을 붙인 검색어로, 예비 파일은 색상을 뺀 Base(기본 검색어)로 찾는다</text>
<text x="1512" y="-22" font-size="14" fill="#1e1e1e" text-anchor="start">※ 네이버에는 정확도순(sim)으로 100개 요청 → ProductService가 필터 → 가격 정렬</text>
<rect x="0" y="70" width="380" height="48" fill="#a5d8ff" stroke="#1e1e1e" stroke-width="1.5" rx="0"/>
<text x="190.0" y="89" font-size="13" fill="#1e1e1e" text-anchor="middle">«enum»</text>
<text x="190.0" y="109" font-size="16" fill="#1e1e1e" text-anchor="middle">PopoverState</text>
<rect x="0" y="118" width="380" height="84" fill="#ffffff" stroke="#1e1e1e" stroke-width="1.5" rx="0"/>
<text x="8" y="138" font-size="14" fill="#1e1e1e" text-anchor="start">Loading</text>
<text x="8" y="156" font-size="14" fill="#1e1e1e" text-anchor="start">Loaded</text>
<text x="8" y="174" font-size="14" fill="#1e1e1e" text-anchor="start">Empty</text>
<text x="8" y="192" font-size="14" fill="#1e1e1e" text-anchor="start">Error</text>
<rect x="0" y="262" width="380" height="48" fill="#a5d8ff" stroke="#1e1e1e" stroke-width="1.5" rx="0"/>
<text x="190.0" y="281" font-size="13" fill="#1e1e1e" text-anchor="middle">«MonoBehaviour»</text>
<text x="190.0" y="301" font-size="16" fill="#1e1e1e" text-anchor="middle">ColorButtonUI</text>
<rect x="0" y="310" width="380" height="48" fill="#ffffff" stroke="#1e1e1e" stroke-width="1.5" rx="0"/>
<text x="8" y="330" font-size="14" fill="#1e1e1e" text-anchor="start">- option: ColorOption</text>
<text x="8" y="348" font-size="14" fill="#1e1e1e" text-anchor="start">+ OnColorClicked: Action&lt;ColorOption&gt;</text>
<rect x="0" y="358" width="380" height="30" fill="#ffffff" stroke="#1e1e1e" stroke-width="1.5" rx="0"/>
<text x="8" y="378" font-size="14" fill="#1e1e1e" text-anchor="start">+ Init(ColorOption): void</text>
<rect x="0" y="480" width="380" height="48" fill="#a5d8ff" stroke="#1e1e1e" stroke-width="1.5" rx="0"/>
<text x="190.0" y="499" font-size="13" fill="#1e1e1e" text-anchor="middle">«MonoBehaviour»</text>
<text x="190.0" y="519" font-size="16" fill="#1e1e1e" text-anchor="middle">ProductListItemUI</text>
<rect x="0" y="528" width="380" height="48" fill="#ffffff" stroke="#1e1e1e" stroke-width="1.5" rx="0"/>
<text x="8" y="548" font-size="14" fill="#1e1e1e" text-anchor="start">- product: Product</text>
<text x="8" y="566" font-size="14" fill="#1e1e1e" text-anchor="start">- thumbnail: RawImage</text>
<rect x="0" y="576" width="380" height="84" fill="#ffffff" stroke="#1e1e1e" stroke-width="1.5" rx="0"/>
<text x="8" y="596" font-size="14" fill="#1e1e1e" text-anchor="start">+ Bind(Product): void</text>
<text x="8" y="614" font-size="14" fill="#1e1e1e" text-anchor="start">- LoadThumbnailAsync(Product): void</text>
<text x="8" y="632" font-size="14" fill="#1e1e1e" text-anchor="start">- IsCurrent(Product): bool</text>
<text x="8" y="650" font-size="14" fill="#1e1e1e" text-anchor="start">- OpenLink(): void</text>
<rect x="0" y="800" width="380" height="48" fill="#c3fae8" stroke="#1e1e1e" stroke-width="1.5" rx="0"/>
<text x="190.0" y="819" font-size="13" fill="#1e1e1e" text-anchor="middle">«Serializable struct»</text>
<text x="190.0" y="839" font-size="16" fill="#1e1e1e" text-anchor="middle">ColorOption</text>
<rect x="0" y="848" width="380" height="48" fill="#ffffff" stroke="#1e1e1e" stroke-width="1.5" rx="0"/>
<text x="8" y="868" font-size="14" fill="#1e1e1e" text-anchor="start">+ name: string</text>
<text x="8" y="886" font-size="14" fill="#1e1e1e" text-anchor="start">+ color: Color</text>
<rect x="0" y="926" width="380" height="48" fill="#c3fae8" stroke="#1e1e1e" stroke-width="1.5" rx="0"/>
<text x="190.0" y="945" font-size="13" fill="#1e1e1e" text-anchor="middle">«Serializable struct»</text>
<text x="190.0" y="965" font-size="16" fill="#1e1e1e" text-anchor="middle">ProductFilter</text>
<rect x="0" y="974" width="380" height="48" fill="#ffffff" stroke="#1e1e1e" stroke-width="1.5" rx="0"/>
<text x="8" y="994" font-size="14" fill="#1e1e1e" text-anchor="start">+ category: string</text>
<text x="8" y="1012" font-size="14" fill="#1e1e1e" text-anchor="start">+ minPrice: int</text>
<rect x="0" y="1022" width="380" height="30" fill="#ffffff" stroke="#1e1e1e" stroke-width="1.5" rx="0"/>
<text x="8" y="1042" font-size="14" fill="#1e1e1e" text-anchor="start">+ Matches(Product): bool</text>
<rect x="0" y="1082" width="380" height="48" fill="#c3fae8" stroke="#1e1e1e" stroke-width="1.5" rx="0"/>
<text x="190.0" y="1101" font-size="13" fill="#1e1e1e" text-anchor="middle">«readonly struct»</text>
<text x="190.0" y="1121" font-size="16" fill="#1e1e1e" text-anchor="middle">SearchKeyword</text>
<rect x="0" y="1130" width="380" height="48" fill="#ffffff" stroke="#1e1e1e" stroke-width="1.5" rx="0"/>
<text x="8" y="1150" font-size="14" fill="#1e1e1e" text-anchor="start">+ Base: string</text>
<text x="8" y="1168" font-size="14" fill="#1e1e1e" text-anchor="start">+ Color: string</text>
<rect x="0" y="1178" width="380" height="30" fill="#ffffff" stroke="#1e1e1e" stroke-width="1.5" rx="0"/>
<text x="8" y="1198" font-size="14" fill="#1e1e1e" text-anchor="start">+ ToFullText(): string</text>
<rect x="480" y="70" width="380" height="48" fill="#a5d8ff" stroke="#1e1e1e" stroke-width="1.5" rx="0"/>
<text x="670.0" y="89" font-size="13" fill="#1e1e1e" text-anchor="middle">«MonoBehaviour»</text>
<text x="670.0" y="109" font-size="16" fill="#1e1e1e" text-anchor="middle">SelectButtonUI</text>
<rect x="480" y="118" width="380" height="30" fill="#ffffff" stroke="#1e1e1e" stroke-width="1.5" rx="0"/>
<text x="488" y="138" font-size="14" fill="#1e1e1e" text-anchor="start">+ OnSelectClicked: Action&lt;SelectableAsset&gt;</text>
<rect x="480" y="148" width="380" height="48" fill="#ffffff" stroke="#1e1e1e" stroke-width="1.5" rx="0"/>
<text x="488" y="168" font-size="14" fill="#1e1e1e" text-anchor="start">+ Show(SelectableAsset): void</text>
<text x="488" y="186" font-size="14" fill="#1e1e1e" text-anchor="start">+ Hide(): void</text>
<rect x="480" y="246" width="380" height="48" fill="#a5d8ff" stroke="#1e1e1e" stroke-width="1.5" rx="0"/>
<text x="670.0" y="265" font-size="13" fill="#1e1e1e" text-anchor="middle">«MonoBehaviour»</text>
<text x="670.0" y="285" font-size="16" fill="#1e1e1e" text-anchor="middle">ProductPopoverUI</text>
<rect x="480" y="294" width="380" height="84" fill="#ffffff" stroke="#1e1e1e" stroke-width="1.5" rx="0"/>
<text x="488" y="314" font-size="14" fill="#1e1e1e" text-anchor="start">- state: PopoverState</text>
<text x="488" y="332" font-size="14" fill="#1e1e1e" text-anchor="start">- colorButtons: ColorButtonUI[*]</text>
<text x="488" y="350" font-size="14" fill="#1e1e1e" text-anchor="start">+ OnColorClicked: Action&lt;ColorOption&gt;</text>
<text x="488" y="368" font-size="14" fill="#1e1e1e" text-anchor="start">+ OnArrowClicked: Action</text>
<rect x="480" y="378" width="380" height="66" fill="#ffffff" stroke="#1e1e1e" stroke-width="1.5" rx="0"/>
<text x="488" y="398" font-size="14" fill="#1e1e1e" text-anchor="start">+ SetState(PopoverState): void</text>
<text x="488" y="416" font-size="14" fill="#1e1e1e" text-anchor="start">+ ShowLowest(Product): void</text>
<text x="488" y="434" font-size="14" fill="#1e1e1e" text-anchor="start">+ ShowColors(ColorOption[*]): void</text>
<rect x="480" y="480" width="380" height="48" fill="#a5d8ff" stroke="#1e1e1e" stroke-width="1.5" rx="0"/>
<text x="670.0" y="499" font-size="13" fill="#1e1e1e" text-anchor="middle">«MonoBehaviour»</text>
<text x="670.0" y="519" font-size="16" fill="#1e1e1e" text-anchor="middle">ProductListPanelUI</text>
<rect x="480" y="528" width="380" height="30" fill="#ffffff" stroke="#1e1e1e" stroke-width="1.5" rx="0"/>
<text x="488" y="548" font-size="14" fill="#1e1e1e" text-anchor="start">- items: ProductListItemUI[*]</text>
<rect x="480" y="558" width="380" height="48" fill="#ffffff" stroke="#1e1e1e" stroke-width="1.5" rx="0"/>
<text x="488" y="578" font-size="14" fill="#1e1e1e" text-anchor="start">+ Show(Product[*]): void</text>
<text x="488" y="596" font-size="14" fill="#1e1e1e" text-anchor="start">+ Hide(): void</text>
<rect x="480" y="650" width="380" height="48" fill="#a5d8ff" stroke="#1e1e1e" stroke-width="1.5" rx="0"/>
<text x="670.0" y="669" font-size="13" fill="#1e1e1e" text-anchor="middle">«MonoBehaviour»</text>
<text x="670.0" y="689" font-size="16" fill="#1e1e1e" text-anchor="middle">ErrorNotifierUI</text>
<rect x="480" y="698" width="380" height="24" fill="#ffffff" stroke="#1e1e1e" stroke-width="1.5" rx="0"/>
<rect x="480" y="722" width="380" height="30" fill="#ffffff" stroke="#1e1e1e" stroke-width="1.5" rx="0"/>
<text x="488" y="742" font-size="14" fill="#1e1e1e" text-anchor="start">+ Show(ErrorCode): void</text>
<rect x="480" y="800" width="380" height="48" fill="#fff3bf" stroke="#1e1e1e" stroke-width="1.5" rx="0"/>
<text x="670.0" y="819" font-size="13" fill="#1e1e1e" text-anchor="middle">«MonoBehaviour»</text>
<text x="670.0" y="839" font-size="16" fill="#1e1e1e" text-anchor="middle">HoverDetector</text>
<rect x="480" y="848" width="380" height="48" fill="#ffffff" stroke="#1e1e1e" stroke-width="1.5" rx="0"/>
<text x="488" y="868" font-size="14" fill="#1e1e1e" text-anchor="start">- current: SelectableAsset[0..1]</text>
<text x="488" y="886" font-size="14" fill="#1e1e1e" text-anchor="start">+ OnHoverChanged: Action&lt;SelectableAsset&gt;</text>
<rect x="480" y="896" width="380" height="30" fill="#ffffff" stroke="#1e1e1e" stroke-width="1.5" rx="0"/>
<text x="488" y="916" font-size="14" fill="#1e1e1e" text-anchor="start">- Update(): void</text>
<rect x="480" y="982" width="380" height="48" fill="#b2f2bb" stroke="#1e1e1e" stroke-width="1.5" rx="0"/>
<text x="670.0" y="1001" font-size="13" fill="#1e1e1e" text-anchor="middle">«MonoBehaviour»</text>
<text x="670.0" y="1021" font-size="16" fill="#1e1e1e" text-anchor="middle">SelectableAsset</text>
<rect x="480" y="1030" width="380" height="120" fill="#ffffff" stroke="#1e1e1e" stroke-width="1.5" rx="0"/>
<text x="488" y="1050" font-size="14" fill="#1e1e1e" text-anchor="start">+ assetId: string</text>
<text x="488" y="1068" font-size="14" fill="#1e1e1e" text-anchor="start">+ searchWord: string</text>
<text x="488" y="1086" font-size="14" fill="#1e1e1e" text-anchor="start">+ filter: ProductFilter</text>
<text x="488" y="1104" font-size="14" fill="#1e1e1e" text-anchor="start">+ colorOptions: ColorOption[*]</text>
<text x="488" y="1122" font-size="14" fill="#1e1e1e" text-anchor="start">- currentColor: ColorOption[0..1]</text>
<text x="488" y="1140" font-size="14" fill="#1e1e1e" text-anchor="start">- targetRenderer: Renderer</text>
<rect x="480" y="1150" width="380" height="48" fill="#ffffff" stroke="#1e1e1e" stroke-width="1.5" rx="0"/>
<text x="488" y="1170" font-size="14" fill="#1e1e1e" text-anchor="start">+ ApplyColor(ColorOption): void</text>
<text x="488" y="1188" font-size="14" fill="#1e1e1e" text-anchor="start">+ BuildKeyword(): SearchKeyword</text>
<rect x="960" y="70" width="380" height="48" fill="#d0bfff" stroke="#1e1e1e" stroke-width="1.5" rx="0"/>
<text x="1150.0" y="89" font-size="13" fill="#1e1e1e" text-anchor="middle">«MonoBehaviour»</text>
<text x="1150.0" y="109" font-size="16" fill="#1e1e1e" text-anchor="middle">RoomPickManager</text>
<rect x="960" y="118" width="380" height="138" fill="#ffffff" stroke="#1e1e1e" stroke-width="1.5" rx="0"/>
<text x="968" y="138" font-size="14" fill="#1e1e1e" text-anchor="start">- selected: SelectableAsset[0..1]</text>
<text x="968" y="156" font-size="14" fill="#1e1e1e" text-anchor="start">- hoverDetector: HoverDetector</text>
<text x="968" y="174" font-size="14" fill="#1e1e1e" text-anchor="start">- selectButton: SelectButtonUI</text>
<text x="968" y="192" font-size="14" fill="#1e1e1e" text-anchor="start">- popover: ProductPopoverUI</text>
<text x="968" y="210" font-size="14" fill="#1e1e1e" text-anchor="start">- listPanel: ProductListPanelUI</text>
<text x="968" y="228" font-size="14" fill="#1e1e1e" text-anchor="start">- notifier: ErrorNotifierUI</text>
<text x="968" y="246" font-size="14" fill="#1e1e1e" text-anchor="start">- productService: ProductService</text>
<rect x="960" y="256" width="380" height="156" fill="#ffffff" stroke="#1e1e1e" stroke-width="1.5" rx="0"/>
<text x="968" y="276" font-size="14" fill="#1e1e1e" text-anchor="start">- BuildRepository(): void</text>
<text x="968" y="294" font-size="14" fill="#1e1e1e" text-anchor="start">- SearchSelected(): void</text>
<text x="968" y="312" font-size="14" fill="#1e1e1e" text-anchor="start">- OnHoverChanged(SelectableAsset): void</text>
<text x="968" y="330" font-size="14" fill="#1e1e1e" text-anchor="start">- OnSelectClicked(SelectableAsset): void</text>
<text x="968" y="348" font-size="14" fill="#1e1e1e" text-anchor="start">- OnColorClicked(ColorOption): void</text>
<text x="968" y="366" font-size="14" fill="#1e1e1e" text-anchor="start">- OnArrowClicked(): void</text>
<text x="968" y="384" font-size="14" fill="#1e1e1e" text-anchor="start">- OnFallbackUsed(ErrorCode): void</text>
<text x="968" y="402" font-size="14" fill="#1e1e1e" text-anchor="start">- IsCurrent(SelectableAsset): bool</text>
<rect x="960" y="468" width="380" height="36" fill="#ffd8a8" stroke="#1e1e1e" stroke-width="1.5" rx="0"/>
<text x="1150.0" y="492" font-size="16" fill="#1e1e1e" text-anchor="middle">ProductService</text>
<rect x="960" y="504" width="380" height="30" fill="#ffffff" stroke="#1e1e1e" stroke-width="1.5" rx="0"/>
<text x="968" y="524" font-size="14" fill="#1e1e1e" text-anchor="start">- repository: IProductRepository</text>
<rect x="960" y="534" width="380" height="84" fill="#ffffff" stroke="#1e1e1e" stroke-width="1.5" rx="0"/>
<text x="968" y="554" font-size="14" fill="#1e1e1e" text-anchor="start">+ SearchAsync(SearchKeyword): Product[*]</text>
<text x="968" y="572" font-size="14" fill="#1e1e1e" text-anchor="start">+ Filter(Product[*], ProductFilter): Product[*]</text>
<text x="968" y="590" font-size="14" fill="#1e1e1e" text-anchor="start">+ FindLowest(Product[*]): Product</text>
<text x="968" y="608" font-size="14" fill="#1e1e1e" text-anchor="start">+ Sort(Product[*]): Product[*]</text>
<rect x="960" y="692" width="380" height="48" fill="#c3fae8" stroke="#1e1e1e" stroke-width="1.5" rx="0"/>
<text x="1150.0" y="711" font-size="13" fill="#1e1e1e" text-anchor="middle">«interface»</text>
<text x="1150.0" y="731" font-size="16" fill="#1e1e1e" text-anchor="middle">IProductRepository</text>
<rect x="960" y="740" width="380" height="24" fill="#ffffff" stroke="#1e1e1e" stroke-width="1.5" rx="0"/>
<rect x="960" y="764" width="380" height="30" fill="#ffffff" stroke="#1e1e1e" stroke-width="1.5" rx="0"/>
<text x="968" y="784" font-size="14" fill="#1e1e1e" text-anchor="start">+ SearchAsync(SearchKeyword): Product[*]</text>
<rect x="960" y="982" width="380" height="48" fill="#b2f2bb" stroke="#1e1e1e" stroke-width="1.5" rx="0"/>
<text x="1150.0" y="1001" font-size="13" fill="#1e1e1e" text-anchor="middle">«MonoBehaviour»</text>
<text x="1150.0" y="1021" font-size="16" fill="#1e1e1e" text-anchor="middle">CameraController</text>
<rect x="960" y="1030" width="380" height="66" fill="#ffffff" stroke="#1e1e1e" stroke-width="1.5" rx="0"/>
<text x="968" y="1050" font-size="14" fill="#1e1e1e" text-anchor="start">- moveSpeed: float</text>
<text x="968" y="1068" font-size="14" fill="#1e1e1e" text-anchor="start">- rotateSpeed: float</text>
<text x="968" y="1086" font-size="14" fill="#1e1e1e" text-anchor="start">- zoomSpeed: float</text>
<rect x="960" y="1096" width="380" height="66" fill="#ffffff" stroke="#1e1e1e" stroke-width="1.5" rx="0"/>
<text x="968" y="1116" font-size="14" fill="#1e1e1e" text-anchor="start">- Move(): void</text>
<text x="968" y="1134" font-size="14" fill="#1e1e1e" text-anchor="start">- Rotate(): void</text>
<text x="968" y="1152" font-size="14" fill="#1e1e1e" text-anchor="start">- Zoom(): void</text>
<rect x="1500" y="70" width="380" height="36" fill="#c3fae8" stroke="#1e1e1e" stroke-width="1.5" rx="0"/>
<text x="1690.0" y="94" font-size="16" fill="#1e1e1e" text-anchor="middle">NaverShoppingRepository</text>
<rect x="1500" y="106" width="380" height="30" fill="#ffffff" stroke="#1e1e1e" stroke-width="1.5" rx="0"/>
<text x="1508" y="126" font-size="14" fill="#1e1e1e" text-anchor="start">- config: NaverApiConfig</text>
<rect x="1500" y="136" width="380" height="48" fill="#ffffff" stroke="#1e1e1e" stroke-width="1.5" rx="0"/>
<text x="1508" y="156" font-size="14" fill="#1e1e1e" text-anchor="start">+ SearchAsync(SearchKeyword): Product[*]</text>
<text x="1508" y="174" font-size="14" fill="#1e1e1e" text-anchor="start">- ThrowByStatus(long): void</text>
<rect x="1500" y="234" width="380" height="36" fill="#c3fae8" stroke="#1e1e1e" stroke-width="1.5" rx="0"/>
<text x="1690.0" y="258" font-size="16" fill="#1e1e1e" text-anchor="middle">JsonProductRepository</text>
<rect x="1500" y="270" width="380" height="30" fill="#ffffff" stroke="#1e1e1e" stroke-width="1.5" rx="0"/>
<text x="1508" y="290" font-size="14" fill="#1e1e1e" text-anchor="start">- jsonPath: string</text>
<rect x="1500" y="300" width="380" height="30" fill="#ffffff" stroke="#1e1e1e" stroke-width="1.5" rx="0"/>
<text x="1508" y="320" font-size="14" fill="#1e1e1e" text-anchor="start">+ SearchAsync(SearchKeyword): Product[*]</text>
<rect x="1500" y="380" width="380" height="36" fill="#c3fae8" stroke="#1e1e1e" stroke-width="1.5" rx="0"/>
<text x="1690.0" y="404" font-size="16" fill="#1e1e1e" text-anchor="middle">CachedProductRepository</text>
<rect x="1500" y="416" width="380" height="48" fill="#ffffff" stroke="#1e1e1e" stroke-width="1.5" rx="0"/>
<text x="1508" y="436" font-size="14" fill="#1e1e1e" text-anchor="start">- inner: IProductRepository</text>
<text x="1508" y="454" font-size="14" fill="#1e1e1e" text-anchor="start">- cache: Map&lt;string, Product[*]&gt;</text>
<rect x="1500" y="464" width="380" height="30" fill="#ffffff" stroke="#1e1e1e" stroke-width="1.5" rx="0"/>
<text x="1508" y="484" font-size="14" fill="#1e1e1e" text-anchor="start">+ SearchAsync(SearchKeyword): Product[*]</text>
<rect x="1500" y="544" width="380" height="36" fill="#c3fae8" stroke="#1e1e1e" stroke-width="1.5" rx="0"/>
<text x="1690.0" y="568" font-size="16" fill="#1e1e1e" text-anchor="middle">FallbackProductRepository</text>
<rect x="1500" y="580" width="380" height="66" fill="#ffffff" stroke="#1e1e1e" stroke-width="1.5" rx="0"/>
<text x="1508" y="600" font-size="14" fill="#1e1e1e" text-anchor="start">- primary: IProductRepository</text>
<text x="1508" y="618" font-size="14" fill="#1e1e1e" text-anchor="start">- fallback: IProductRepository</text>
<text x="1508" y="636" font-size="14" fill="#1e1e1e" text-anchor="start">+ OnFallbackUsed: Action&lt;ErrorCode&gt;</text>
<rect x="1500" y="646" width="380" height="30" fill="#ffffff" stroke="#1e1e1e" stroke-width="1.5" rx="0"/>
<text x="1508" y="666" font-size="14" fill="#1e1e1e" text-anchor="start">+ SearchAsync(SearchKeyword): Product[*]</text>
<rect x="1980" y="70" width="380" height="48" fill="#c3fae8" stroke="#1e1e1e" stroke-width="1.5" rx="0"/>
<text x="2170.0" y="89" font-size="13" fill="#1e1e1e" text-anchor="middle">«ScriptableObject»</text>
<text x="2170.0" y="109" font-size="16" fill="#1e1e1e" text-anchor="middle">NaverApiConfig</text>
<rect x="1980" y="118" width="380" height="84" fill="#ffffff" stroke="#1e1e1e" stroke-width="1.5" rx="0"/>
<text x="1988" y="138" font-size="14" fill="#1e1e1e" text-anchor="start">+ clientId: string</text>
<text x="1988" y="156" font-size="14" fill="#1e1e1e" text-anchor="start">+ clientSecret: string</text>
<text x="1988" y="174" font-size="14" fill="#1e1e1e" text-anchor="start">+ display: int = 100</text>
<text x="1988" y="192" font-size="14" fill="#1e1e1e" text-anchor="start">+ sort: string = "sim"</text>
<text x="1980" y="222" font-size="13" fill="#b91c1c" text-anchor="start">※ 에셋은 .gitignore 등록, 키는 각자 로컬 입력</text>
<rect x="1980" y="240" width="380" height="48" fill="#c3fae8" stroke="#1e1e1e" stroke-width="1.5" rx="0"/>
<text x="2170.0" y="259" font-size="13" fill="#1e1e1e" text-anchor="middle">«Serializable»</text>
<text x="2170.0" y="279" font-size="16" fill="#1e1e1e" text-anchor="middle">NaverShopResponse</text>
<rect x="1980" y="288" width="380" height="84" fill="#ffffff" stroke="#1e1e1e" stroke-width="1.5" rx="0"/>
<text x="1988" y="308" font-size="14" fill="#1e1e1e" text-anchor="start">+ total: int</text>
<text x="1988" y="326" font-size="14" fill="#1e1e1e" text-anchor="start">+ start: int</text>
<text x="1988" y="344" font-size="14" fill="#1e1e1e" text-anchor="start">+ display: int</text>
<text x="1988" y="362" font-size="14" fill="#1e1e1e" text-anchor="start">+ items: NaverShopItem[*]</text>
<rect x="1980" y="422" width="380" height="48" fill="#c3fae8" stroke="#1e1e1e" stroke-width="1.5" rx="0"/>
<text x="2170.0" y="441" font-size="13" fill="#1e1e1e" text-anchor="middle">«Serializable»</text>
<text x="2170.0" y="461" font-size="16" fill="#1e1e1e" text-anchor="middle">NaverShopItem</text>
<rect x="1980" y="470" width="380" height="192" fill="#ffffff" stroke="#1e1e1e" stroke-width="1.5" rx="0"/>
<text x="1988" y="490" font-size="14" fill="#1e1e1e" text-anchor="start">+ title: string</text>
<text x="1988" y="508" font-size="14" fill="#1e1e1e" text-anchor="start">+ link: string</text>
<text x="1988" y="526" font-size="14" fill="#1e1e1e" text-anchor="start">+ image: string</text>
<text x="1988" y="544" font-size="14" fill="#1e1e1e" text-anchor="start">+ lprice: string</text>
<text x="1988" y="562" font-size="14" fill="#1e1e1e" text-anchor="start">+ hprice: string</text>
<text x="1988" y="580" font-size="14" fill="#1e1e1e" text-anchor="start">+ mallName: string</text>
<text x="1988" y="598" font-size="14" fill="#1e1e1e" text-anchor="start">+ productId: string</text>
<text x="1988" y="616" font-size="14" fill="#1e1e1e" text-anchor="start">+ brand: string</text>
<text x="1988" y="634" font-size="14" fill="#1e1e1e" text-anchor="start">+ maker: string</text>
<text x="1988" y="652" font-size="14" fill="#1e1e1e" text-anchor="start">+ category1..4: string</text>
<rect x="1980" y="712" width="380" height="48" fill="#c3fae8" stroke="#1e1e1e" stroke-width="1.5" rx="0"/>
<text x="2170.0" y="731" font-size="13" fill="#1e1e1e" text-anchor="middle">«static»</text>
<text x="2170.0" y="751" font-size="16" fill="#1e1e1e" text-anchor="middle">ProductMapper</text>
<rect x="1980" y="760" width="380" height="24" fill="#ffffff" stroke="#1e1e1e" stroke-width="1.5" rx="0"/>
<rect x="1980" y="784" width="380" height="84" fill="#ffffff" stroke="#1e1e1e" stroke-width="1.5" rx="0"/>
<text x="1988" y="804" font-size="14" fill="#1e1e1e" text-anchor="start">+ ToProduct(NaverShopItem): Product</text>
<text x="1988" y="822" font-size="14" fill="#1e1e1e" text-anchor="start">- StripTags(string): string</text>
<text x="1988" y="840" font-size="14" fill="#1e1e1e" text-anchor="start">- ParsePrice(string): int</text>
<text x="1988" y="858" font-size="14" fill="#1e1e1e" text-anchor="start">- JoinCategory(NaverShopItem): string</text>
<rect x="1980" y="900" width="380" height="48" fill="#c3fae8" stroke="#1e1e1e" stroke-width="1.5" rx="0"/>
<text x="2170.0" y="919" font-size="13" fill="#1e1e1e" text-anchor="middle">«record»</text>
<text x="2170.0" y="939" font-size="16" fill="#1e1e1e" text-anchor="middle">Product</text>
<rect x="1980" y="948" width="380" height="138" fill="#ffffff" stroke="#1e1e1e" stroke-width="1.5" rx="0"/>
<text x="1988" y="968" font-size="14" fill="#1e1e1e" text-anchor="start">+ Id: string {readonly}</text>
<text x="1988" y="986" font-size="14" fill="#1e1e1e" text-anchor="start">+ Name: string {readonly}</text>
<text x="1988" y="1004" font-size="14" fill="#1e1e1e" text-anchor="start">+ Price: int {readonly}</text>
<text x="1988" y="1022" font-size="14" fill="#1e1e1e" text-anchor="start">+ Link: string {readonly}</text>
<text x="1988" y="1040" font-size="14" fill="#1e1e1e" text-anchor="start">+ ImageUrl: string {readonly}</text>
<text x="1988" y="1058" font-size="14" fill="#1e1e1e" text-anchor="start">+ MallName: string {readonly}</text>
<text x="1988" y="1076" font-size="14" fill="#1e1e1e" text-anchor="start">+ Category: string {readonly}</text>
<rect x="1500" y="1150" width="380" height="36" fill="#ffc9c9" stroke="#1e1e1e" stroke-width="1.5" rx="0"/>
<text x="1690.0" y="1174" font-size="16" fill="#1e1e1e" text-anchor="middle">RoomPickException</text>
<rect x="1500" y="1186" width="380" height="30" fill="#ffffff" stroke="#1e1e1e" stroke-width="1.5" rx="0"/>
<text x="1508" y="1206" font-size="14" fill="#1e1e1e" text-anchor="start">+ ErrorCode: ErrorCode {readonly}</text>
<rect x="1980" y="1140" width="380" height="48" fill="#ffc9c9" stroke="#1e1e1e" stroke-width="1.5" rx="0"/>
<text x="2170.0" y="1159" font-size="13" fill="#1e1e1e" text-anchor="middle">«enum»</text>
<text x="2170.0" y="1179" font-size="16" fill="#1e1e1e" text-anchor="middle">ErrorCode</text>
<rect x="1980" y="1188" width="380" height="84" fill="#ffffff" stroke="#1e1e1e" stroke-width="1.5" rx="0"/>
<text x="1988" y="1208" font-size="14" fill="#1e1e1e" text-anchor="start">NetworkFailed</text>
<text x="1988" y="1226" font-size="14" fill="#1e1e1e" text-anchor="start">ApiAuthFailed</text>
<text x="1988" y="1244" font-size="14" fill="#1e1e1e" text-anchor="start">ApiQuotaExceeded</text>
<text x="1988" y="1262" font-size="14" fill="#1e1e1e" text-anchor="start">ApiResponseInvalid</text>
<text x="1500" y="1242" font-size="13" fill="#b91c1c" text-anchor="start">«throw» NaverShoppingRepository</text>
<text x="1500" y="1262" font-size="13" fill="#b91c1c" text-anchor="start">«catch» Fallback(네트워크·한도 초과), RoomPickManager(그 외)</text>
<polyline points="960.0,111.0 860.0,133.0" fill="none" stroke="#1e1e1e" stroke-width="1.6"/>
<line x1="860.0" y1="133.0" x2="872.7" y2="135.8" stroke="#1e1e1e" stroke-width="1.6" stroke-linecap="round"/>
<line x1="860.0" y1="133.0" x2="870.3" y2="125.1" stroke="#1e1e1e" stroke-width="1.6" stroke-linecap="round"/>
<polyline points="960.0,155.5 860.0,345.0" fill="none" stroke="#1e1e1e" stroke-width="1.6"/>
<line x1="860.0" y1="345.0" x2="870.4" y2="337.1" stroke="#1e1e1e" stroke-width="1.6" stroke-linecap="round"/>
<line x1="860.0" y1="345.0" x2="860.6" y2="332.0" stroke="#1e1e1e" stroke-width="1.6" stroke-linecap="round"/>
<polyline points="960.0,200.0 860.0,543.0" fill="none" stroke="#1e1e1e" stroke-width="1.6"/>
<line x1="860.0" y1="543.0" x2="868.6" y2="533.2" stroke="#1e1e1e" stroke-width="1.6" stroke-linecap="round"/>
<line x1="860.0" y1="543.0" x2="858.0" y2="530.2" stroke="#1e1e1e" stroke-width="1.6" stroke-linecap="round"/>
<polyline points="960.0,244.4 860.0,701.0" fill="none" stroke="#1e1e1e" stroke-width="1.6"/>
<line x1="860.0" y1="701.0" x2="867.9" y2="690.7" stroke="#1e1e1e" stroke-width="1.6" stroke-linecap="round"/>
<line x1="860.0" y1="701.0" x2="857.2" y2="688.3" stroke="#1e1e1e" stroke-width="1.6" stroke-linecap="round"/>
<polyline points="960.0,288.9 860.0,863.0" fill="none" stroke="#1e1e1e" stroke-width="1.6"/>
<line x1="860.0" y1="863.0" x2="867.4" y2="852.3" stroke="#1e1e1e" stroke-width="1.6" stroke-linecap="round"/>
<line x1="860.0" y1="863.0" x2="856.6" y2="850.5" stroke="#1e1e1e" stroke-width="1.6" stroke-linecap="round"/>
<polyline points="960.0,333.3 860.0,1090.0" fill="none" stroke="#1e1e1e" stroke-width="1.6"/>
<line x1="860.0" y1="1090.0" x2="867.0" y2="1079.0" stroke="#1e1e1e" stroke-width="1.6" stroke-linecap="round"/>
<line x1="860.0" y1="1090.0" x2="856.1" y2="1077.6" stroke="#1e1e1e" stroke-width="1.6" stroke-linecap="round"/>
<polyline points="1150.0,412.0 1150.0,468.0" fill="none" stroke="#1e1e1e" stroke-width="1.6"/>
<line x1="1150.0" y1="468.0" x2="1155.5" y2="456.2" stroke="#1e1e1e" stroke-width="1.6" stroke-linecap="round"/>
<line x1="1150.0" y1="468.0" x2="1144.5" y2="456.2" stroke="#1e1e1e" stroke-width="1.6" stroke-linecap="round"/>
<polyline points="1150.0,618.0 1150.0,692.0" fill="none" stroke="#1e1e1e" stroke-width="1.6"/>
<line x1="1150.0" y1="692.0" x2="1155.5" y2="680.2" stroke="#1e1e1e" stroke-width="1.6" stroke-linecap="round"/>
<line x1="1150.0" y1="692.0" x2="1144.5" y2="680.2" stroke="#1e1e1e" stroke-width="1.6" stroke-linecap="round"/>
<polyline points="670.0,926.0 670.0,982.0" fill="none" stroke="#1e1e1e" stroke-width="1.6"/>
<line x1="670.0" y1="982.0" x2="675.5" y2="970.2" stroke="#1e1e1e" stroke-width="1.6" stroke-linecap="round"/>
<line x1="670.0" y1="982.0" x2="664.5" y2="970.2" stroke="#1e1e1e" stroke-width="1.6" stroke-linecap="round"/>
<polyline points="480.0,285.6 380.0,162.4" fill="none" stroke="#1e1e1e" stroke-width="1.6"/>
<line x1="380.0" y1="162.4" x2="383.2" y2="175.0" stroke="#1e1e1e" stroke-width="1.6" stroke-linecap="round"/>
<line x1="380.0" y1="162.4" x2="391.7" y2="168.1" stroke="#1e1e1e" stroke-width="1.6" stroke-linecap="round"/>
<polyline points="480.0,364.8 380.0,364.8" fill="none" stroke="#1e1e1e" stroke-width="1.6"/>
<polygon points="480.0,364.8 469.0,358.8 458.0,364.8 469.0,370.8" fill="#1e1e1e" stroke="#1e1e1e" stroke-width="1.6"/>
<line x1="380.0" y1="364.8" x2="391.8" y2="370.3" stroke="#1e1e1e" stroke-width="1.6" stroke-linecap="round"/>
<line x1="380.0" y1="364.8" x2="391.8" y2="359.3" stroke="#1e1e1e" stroke-width="1.6" stroke-linecap="round"/>
<polyline points="480.0,543.0 380.0,543.0" fill="none" stroke="#1e1e1e" stroke-width="1.6"/>
<polygon points="480.0,543.0 469.0,537.0 458.0,543.0 469.0,549.0" fill="#1e1e1e" stroke="#1e1e1e" stroke-width="1.6"/>
<line x1="380.0" y1="543.0" x2="391.8" y2="548.5" stroke="#1e1e1e" stroke-width="1.6" stroke-linecap="round"/>
<line x1="380.0" y1="543.0" x2="391.8" y2="537.5" stroke="#1e1e1e" stroke-width="1.6" stroke-linecap="round"/>
<polyline points="480.0,1036.0 380.0,848.0" fill="none" stroke="#1e1e1e" stroke-width="1.6"/>
<polygon points="480.0,1036.0 480.1,1023.5 469.7,1016.6 469.5,1029.1" fill="#1e1e1e" stroke="#1e1e1e" stroke-width="1.6"/>
<line x1="380.0" y1="848.0" x2="380.7" y2="861.0" stroke="#1e1e1e" stroke-width="1.6" stroke-linecap="round"/>
<line x1="380.0" y1="848.0" x2="390.4" y2="855.8" stroke="#1e1e1e" stroke-width="1.6" stroke-linecap="round"/>
<polyline points="480.0,1090.0 380.0,989.0" fill="none" stroke="#1e1e1e" stroke-width="1.6"/>
<polygon points="480.0,1090.0 476.5,1078.0 464.5,1074.4 468.0,1086.4" fill="#1e1e1e" stroke="#1e1e1e" stroke-width="1.6"/>
<line x1="380.0" y1="989.0" x2="384.4" y2="1001.2" stroke="#1e1e1e" stroke-width="1.6" stroke-linecap="round"/>
<line x1="380.0" y1="989.0" x2="392.2" y2="993.5" stroke="#1e1e1e" stroke-width="1.6" stroke-linecap="round"/>
<polyline points="480.0,1154.8 380.0,1145.0" fill="none" stroke="#1e1e1e" stroke-width="1.6" stroke-dasharray="7 5"/>
<line x1="380.0" y1="1145.0" x2="391.2" y2="1151.6" stroke="#1e1e1e" stroke-width="1.6" stroke-linecap="round"/>
<line x1="380.0" y1="1145.0" x2="392.3" y2="1140.7" stroke="#1e1e1e" stroke-width="1.6" stroke-linecap="round"/>
<polyline points="1500.0,127.0 1395.0,127.0 1395.0,743.0 1340.0,743.0" fill="none" stroke="#1e1e1e" stroke-width="1.6" stroke-dasharray="7 5"/>
<polygon points="1340.0,743.0 1358.0,733.0 1358.0,753.0" fill="#ffffff" stroke="#1e1e1e" stroke-width="1.6"/>
<polyline points="1500.0,282.0 1395.0,282.0" fill="none" stroke="#1e1e1e" stroke-width="1.6" stroke-dasharray="7 5"/>
<polyline points="1500.0,414.2 1395.0,414.2" fill="none" stroke="#1e1e1e" stroke-width="1.6" stroke-dasharray="7 5"/>
<polyline points="1500.0,590.2 1395.0,590.2" fill="none" stroke="#1e1e1e" stroke-width="1.6" stroke-dasharray="7 5"/>
<polyline points="1500.0,468.9 1455.0,468.9 1455.0,844.0" fill="none" stroke="#1e1e1e" stroke-width="1.6"/>
<polygon points="1500.0,468.9 1489.0,462.9 1478.0,468.9 1489.0,474.9" fill="#ffffff" stroke="#1e1e1e" stroke-width="1.6"/>
<polyline points="1595.0,676.0 1595.0,844.0 1150.0,844.0 1150.0,794.0" fill="none" stroke="#1e1e1e" stroke-width="1.6"/>
<polygon points="1595.0,676.0 1589.0,687.0 1595.0,698.0 1601.0,687.0" fill="#ffffff" stroke="#1e1e1e" stroke-width="1.6"/>
<line x1="1150.0" y1="794.0" x2="1144.5" y2="805.8" stroke="#1e1e1e" stroke-width="1.6" stroke-linecap="round"/>
<line x1="1150.0" y1="794.0" x2="1155.5" y2="805.8" stroke="#1e1e1e" stroke-width="1.6" stroke-linecap="round"/>
<polyline points="1880.0,127.0 1980.0,136.0" fill="none" stroke="#1e1e1e" stroke-width="1.6"/>
<line x1="1980.0" y1="136.0" x2="1968.8" y2="129.5" stroke="#1e1e1e" stroke-width="1.6" stroke-linecap="round"/>
<line x1="1980.0" y1="136.0" x2="1967.8" y2="140.4" stroke="#1e1e1e" stroke-width="1.6" stroke-linecap="round"/>
<polyline points="1880.0,149.8 1980.0,306.0" fill="none" stroke="#1e1e1e" stroke-width="1.6" stroke-dasharray="7 5"/>
<line x1="1980.0" y1="306.0" x2="1978.3" y2="293.1" stroke="#1e1e1e" stroke-width="1.6" stroke-linecap="round"/>
<line x1="1980.0" y1="306.0" x2="1969.0" y2="299.0" stroke="#1e1e1e" stroke-width="1.6" stroke-linecap="round"/>
<polyline points="1880.0,170.3 1980.0,790.0" fill="none" stroke="#1e1e1e" stroke-width="1.6" stroke-dasharray="7 5"/>
<line x1="1980.0" y1="790.0" x2="1983.5" y2="777.5" stroke="#1e1e1e" stroke-width="1.6" stroke-linecap="round"/>
<line x1="1980.0" y1="790.0" x2="1972.7" y2="779.2" stroke="#1e1e1e" stroke-width="1.6" stroke-linecap="round"/>
<polyline points="2170.0,372.0 2170.0,422.0" fill="none" stroke="#1e1e1e" stroke-width="1.6"/>
<polygon points="2170.0,372.0 2164.0,383.0 2170.0,394.0 2176.0,383.0" fill="#1e1e1e" stroke="#1e1e1e" stroke-width="1.6"/>
<line x1="2170.0" y1="422.0" x2="2175.5" y2="410.2" stroke="#1e1e1e" stroke-width="1.6" stroke-linecap="round"/>
<line x1="2170.0" y1="422.0" x2="2164.5" y2="410.2" stroke="#1e1e1e" stroke-width="1.6" stroke-linecap="round"/>
<polyline points="2170.0,712.0 2170.0,662.0" fill="none" stroke="#1e1e1e" stroke-width="1.6" stroke-dasharray="7 5"/>
<line x1="2170.0" y1="662.0" x2="2164.5" y2="673.8" stroke="#1e1e1e" stroke-width="1.6" stroke-linecap="round"/>
<line x1="2170.0" y1="662.0" x2="2175.5" y2="673.8" stroke="#1e1e1e" stroke-width="1.6" stroke-linecap="round"/>
<polyline points="2170.0,868.0 2170.0,900.0" fill="none" stroke="#1e1e1e" stroke-width="1.6" stroke-dasharray="7 5"/>
<line x1="2170.0" y1="900.0" x2="2175.5" y2="888.2" stroke="#1e1e1e" stroke-width="1.6" stroke-linecap="round"/>
<line x1="2170.0" y1="900.0" x2="2164.5" y2="888.2" stroke="#1e1e1e" stroke-width="1.6" stroke-linecap="round"/>
<polyline points="1880.0,1183.0 1980.0,1183.0" fill="none" stroke="#1e1e1e" stroke-width="1.6"/>
<line x1="1980.0" y1="1183.0" x2="1968.2" y2="1177.5" stroke="#1e1e1e" stroke-width="1.6" stroke-linecap="round"/>
<line x1="1980.0" y1="1183.0" x2="1968.2" y2="1188.5" stroke="#1e1e1e" stroke-width="1.6" stroke-linecap="round"/>
<polyline points="1785.0,676.0 1785.0,1150.0" fill="none" stroke="#b91c1c" stroke-width="1.6" stroke-dasharray="7 5"/>
<line x1="1785.0" y1="1150.0" x2="1790.5" y2="1138.2" stroke="#b91c1c" stroke-width="1.6" stroke-linecap="round"/>
<line x1="1785.0" y1="1150.0" x2="1779.5" y2="1138.2" stroke="#b91c1c" stroke-width="1.6" stroke-linecap="round"/>
<text x="1795.0" y="1088" font-size="14" fill="#b91c1c" text-anchor="start">«catch»</text>
<rect x="-20" y="-172" width="560" height="172" fill="#ffffff" stroke="#757575" stroke-width="1" rx="0"/>
<text x="-5" y="-146" font-size="16" fill="#1e1e1e" text-anchor="start">범례</text>
<polyline points="-5.0,-110.0 65.0,-110.0" fill="none" stroke="#1e1e1e" stroke-width="1.6"/>
<line x1="65.0" y1="-110.0" x2="53.2" y2="-115.5" stroke="#1e1e1e" stroke-width="1.6" stroke-linecap="round"/>
<line x1="65.0" y1="-110.0" x2="53.2" y2="-104.5" stroke="#1e1e1e" stroke-width="1.6" stroke-linecap="round"/>
<text x="85" y="-105" font-size="14" fill="#1e1e1e" text-anchor="start">연관 Association</text>
<polyline points="-5.0,-72.0 65.0,-72.0" fill="none" stroke="#1e1e1e" stroke-width="1.6" stroke-dasharray="7 5"/>
<line x1="65.0" y1="-72.0" x2="53.2" y2="-77.5" stroke="#1e1e1e" stroke-width="1.6" stroke-linecap="round"/>
<line x1="65.0" y1="-72.0" x2="53.2" y2="-66.5" stroke="#1e1e1e" stroke-width="1.6" stroke-linecap="round"/>
<text x="85" y="-67" font-size="14" fill="#1e1e1e" text-anchor="start">의존 Dependency</text>
<polyline points="-5.0,-34.0 65.0,-34.0" fill="none" stroke="#1e1e1e" stroke-width="1.6" stroke-dasharray="7 5"/>
<polygon points="65.0,-34.0 47.0,-24.0 47.0,-44.0" fill="#ffffff" stroke="#1e1e1e" stroke-width="1.6"/>
<text x="85" y="-29" font-size="14" fill="#1e1e1e" text-anchor="start">실체화 Realization</text>
<polyline points="345.0,-110.0 275.0,-110.0" fill="none" stroke="#1e1e1e" stroke-width="1.6"/>
<polygon points="345.0,-110.0 334.0,-116.0 323.0,-110.0 334.0,-104.0" fill="#ffffff" stroke="#1e1e1e" stroke-width="1.6"/>
<text x="365" y="-105" font-size="14" fill="#1e1e1e" text-anchor="start">집합 Aggregation</text>
<polyline points="345.0,-72.0 275.0,-72.0" fill="none" stroke="#1e1e1e" stroke-width="1.6"/>
<polygon points="345.0,-72.0 334.0,-78.0 323.0,-72.0 334.0,-66.0" fill="#1e1e1e" stroke="#1e1e1e" stroke-width="1.6"/>
<text x="365" y="-67" font-size="14" fill="#1e1e1e" text-anchor="start">합성 Composition</text>
</svg>